) (`-.                           (` .-') /`           ) (`-.
       ( OO ).                          `.( OO ),'            ( OO ).
      (_/.  _)-.-'),-----. ,--.     ,--./  .--.  .-'),-----.(_/.  _)-.
         `.'  ( OO'  .-.  '|  |.-') |      |  | ( OO'  .-.  '  `.'  /
             /Y   |  | |  ||  | OO )|  |   |  |,/   |  | |  |      /
             _) |  ||  ||  |`-' ||  |.'.|  |_)_) |  ||  |      |
        .'    _) |  | |  (|  '---.'|         |    |  | |  | .'    _)
       /  .'.    `'  '-'  '|      | |   ,'.   |    `'  '-'  '/  .'.  
      '--'   '--'   `-----' `------' '--'   '--'      `-----''--'   '--'


      ßßßßßßßßßßßßßßßßßßßßßßßßßßßßßßßßßßßßßßßßßßßßßßßßßßßßßßßßßßßßßßßßßßßßßß

                 Û°°°°°°°°°°°°°°°°°°°°°°°°°°°°°°°°°°°°°°Û
                ÛÛ My Sisters Keeper[2009]-WP-DvDScR-LW ÛÛ
                 Û°°°°°°°°°°°°°°°°°°°°°°°°°°°°°°°°°°°°°°Û

File Name    : My Sisters Keeper[2009]-WP-DvDScR-LW
Type         : Movie
Format       : MP4
File Size    : 0.99 GB
Duration     : 01:53:06
Language     : English
Source       : DvD
Subtitles    : None
Genre        : Drama
IMDB Link    : http://www.imdb.com/title/tt1078588/
IMDB Rating  : 7.3/10
IMDB Votes   : 3,517 Votes
     ÜÜÜÜÜÜÜÜÜÜÜÜÜÜÜÜÜÜÜÜÜÜÜÜÜÜÜÜÜÜÜÜÜÜÜÜÜÜÜÜÜÜÜÜÜÜÜÜÜÜÜÜÜÜÜÜÜÜÜÜÜÜÜÜÜÜÜÜÜÜ
 
                        Û°°°°°°°°°°°°°°°°°°°°°°°°Û
                       ÛÛ       Video Info       ÛÛ
                        Û°°°°°°°°°°°°°°°°°°°°°°°°Û

Format                           : MPEG-4 Visual
Format profile                   : Simple@L3
Format settings, BVOP            : No
Format settings, QPel            : No
Format settings, GMC             : No warppoints
Format settings, Matrix          : Default (H.263)
Codec ID                         : 20
Duration                         : 1h 53mn
Bit rate mode                    : Constant
Bit rate                         : 1 154 Kbps
Nominal bit rate                 : 1 500 Kbps
Width                            : 640 pixels
Height                           : 320 pixels
Display aspect ratio             : 2.000
Frame rate mode                  : Constant
Frame rate                       : 29.970 fps
Resolution                       : 24 bits
Colorimetry                      : 4:2:0
Scan type                        : Progressive
Bits/(Pixel*Frame)               : 0.188
Stream size                      : 934 MiB (92%)
     ÜÜÜÜÜÜÜÜÜÜÜÜÜÜÜÜÜÜÜÜÜÜÜÜÜÜÜÜÜÜÜÜÜÜÜÜÜÜÜÜÜÜÜÜÜÜÜÜÜÜÜÜÜÜÜÜÜÜÜÜÜÜÜÜÜÜÜÜÜÜ

                         Û°°°°°°°°°°°°°°°°°°°°°°°°Û
                        ÛÛ      Sound Info        ÛÛ
                         Û°°°°°°°°°°°°°°°°°°°°°°°°Û

Format                           : AAC
Format/Info                      : Advanced Audio Codec
Format version                   : Version 4
Format profile                   : LC
Format settings, SBR             : No
Codec ID                         : 40
Duration                         : 1h 53mn
Bit rate mode                    : Constant
Bit rate                         : 96.0 Kbps
Nominal bit rate                 : 48.0 Kbps
Channel(s)                       : 2 channels
Channel positions                : L R
Sampling rate                    : 32.0 KHz
Resolution                       : 16 bits
Stream size                      : 77.7 MiB (8%)
    ÜÜÜÜÜÜÜÜÜÜÜÜÜÜÜÜÜÜÜÜÜÜÜÜÜÜÜÜÜÜÜÜÜÜÜÜÜÜÜÜÜÜÜÜÜÜÜÜÜÜÜÜÜÜÜÜÜÜÜÜÜÜÜÜÜÜÜÜÜÜ

                          Û°°°°°°°°°°°°°°°°°°°°°°°°Û
                         ÛÛ          Plot          ÛÛ
                          Û°°°°°°°°°°°°°°°°°°°°°°°°Û

A former defense attorney (Cameron Diaz) finds 
herself back in the courtroom when she and her 
husband (Jason Patric) get sued for emancipation 
by their teenage daughter, Anna (Abigail Breslin). 
The subsequent trial exposes a shocking family 
secret that tests the limits of parental love -- 
and the boundaries of ethics. Joan Cusack and 
Alec Baldwin round out the cast in this powerful 
drama based on Jodi Picoult's novel.

Starring: Cameron Diaz, Abigail Breslin

Director: Nick Cassavetes
    ÜÜÜÜÜÜÜÜÜÜÜÜÜÜÜÜÜÜÜÜÜÜÜÜÜÜÜÜÜÜÜÜÜÜÜÜÜÜÜÜÜÜÜÜÜÜÜÜÜÜÜÜÜÜÜÜÜÜÜÜÜÜÜÜÜÜÜÜÜÜ

ScreenShots 
http://imgshack.info/images/jyleqx1kxewd2y62vdkt.png 
http://imgshack.info/images/yjqbs210elyxe5omm6os.png 
http://imgshack.info/images/pnckr2ck1uz7cywjeki.png 
http://imgshack.info/images/41vamxr35wstw47ypbs.jpg 
http://torrentz.me.pn